<svg xmlns="http://www.w3.org/2000/svg" x="0px" y="0px" width="512" height="512" viewBox="0,0,256,256">
<g fill="none" fill-rule="nonzero" stroke="none" stroke-width="none" stroke-linecap="none" stroke-linejoin="miter" stroke-miterlimit="10" stroke-dasharray="" stroke-dashoffset="0" font-family="none" font-weight="none" font-size="none" text-anchor="none" style="mix-blend-mode: normal"><g transform="scale(5.33333,5.33333)"><path d="M3.5,34.5c0,-5.247 4.253,-10.5 9.5,-10.5M44.5,14.5c0,5.247 -4.253,9.5 -9.5,9.5M19.5,36.5v8M28.5,36.5v8" fill="none" stroke="#00796b" stroke-width="3" stroke-linecap="round"></path><path d="M34,37h-20c-1.105,0 -2,-0.895 -2,-2v-30c0,-1.105 0.895,-2 2,-2h20c1.105,0 2,0.895 2,2v30c0,1.105 -0.895,2 -2,2z" fill="#00bfa5" stroke="none" stroke-width="1" stroke-linecap="butt"></path><path d="M32,19h-16c-0.552,0 -1,-0.448 -1,-1v-11c0,-0.552 0.448,-1 1,-1h16c0.552,0 1,0.448 1,1v11c0,0.552 -0.448,1 -1,1z" fill="#e0f2f1" stroke="none" stroke-width="1" stroke-linecap="butt"></path><path d="M18.5,9c-0.82843,0 -1.5,0.67157 -1.5,1.5c0,0.82843 0.67157,1.5 1.5,1.5c0.82843,0 1.5,-0.67157 1.5,-1.5c0,-0.82843 -0.67157,-1.5 -1.5,-1.5zM29.5,9c-0.82843,0 -1.5,0.67157 -1.5,1.5c0,0.82843 0.67157,1.5 1.5,1.5c0.82843,0 1.5,-0.67157 1.5,-1.5c0,-0.82843 -0.67157,-1.5 -1.5,-1.5z" fill="#212121" stroke="none" stroke-width="1" stroke-linecap="butt"></path><path d="M26.5,13c0,1.381 -1.119,2.5 -2.5,2.5c-1.381,0 -2.5,-1.119 -2.5,-2.5" fill="none" stroke="#212121" stroke-width="1" stroke-linecap="butt"></path><path d="M15,21h12v2h-12zM32,21c-0.55228,0 -1,0.44772 -1,1c0,0.55228 0.44772,1 1,1c0.55228,0 1,-0.44772 1,-1c0,-0.55228 -0.44772,-1 -1,-1z" fill="#212121" stroke="none" stroke-width="1" stroke-linecap="butt"></path><path d="M33,26c-0.55228,0 -1,0.44772 -1,1c0,0.55228 0.44772,1 1,1c0.55228,0 1,-0.44772 1,-1c0,-0.55228 -0.44772,-1 -1,-1z" fill="#76ff03" stroke="none" stroke-width="1" stroke-linecap="butt"></path><path d="M17,25h2v6h-2z" fill="#ffea00" stroke="none" stroke-width="1" stroke-linecap="butt"></path><path transform="translate(-10,46) rotate(-90)" d="M17,25h2v6h-2z" fill="#ffea00" stroke="none" stroke-width="1" stroke-linecap="butt"></path><path d="M18,35h-2c-0.552,0 -1,-0.448 -1,-1v0c0,-0.552 0.448,-1 1,-1h2c0.552,0 1,0.448 1,1v0c0,0.552 -0.448,1 -1,1zM24,35h-2c-0.552,0 -1,-0.448 -1,-1v0c0,-0.552 0.448,-1 1,-1h2c0.552,0 1,0.448 1,1v0c0,0.552 -0.448,1 -1,1z" fill="#212121" stroke="none" stroke-width="1" stroke-linecap="butt"></path><path d="M30.5,30c-1.38071,0 -2.5,1.11929 -2.5,2.5c0,1.38071 1.11929,2.5 2.5,2.5c1.38071,0 2.5,-1.11929 2.5,-2.5c0,-1.38071 -1.11929,-2.5 -2.5,-2.5z" fill="#ff3d00" stroke="none" stroke-width="1" stroke-linecap="butt"></path><path d="M28,25l-2,3h4z" fill="#84ffff" stroke="none" stroke-width="1" stroke-linecap="butt"></path></g></g>
</svg>